# xmcd CD database file
#
# Track frame offsets:
#	150
#	12947
#	26105
#	39632
#	54290
#	66875
#	79262
#	93782
#	106930
#	122170
#	135500
#	150097
#	163815
#	177587
#	190987
#	205182
#	218422
#	231355
#	245357
#	259902
#	272505
#	283335
#	298980
#
# Disc length: 4154 seconds
#
# Revision: 4
# Processed by: cddbd v1.5.2PL0 Copyright (c) Steve Scherf et al.
# Submitted via: CDex 1.70beta2
#
DISCID=4c103817
DTITLE=Various Artist - When I Was a Cowboy Volume 1
DYEAR=1996
DGENRE=Country
TTITLE0=Cartwright Brothers/ Utah Carroll
TTITLE1=Edward L. Crain/ Bandit Cole Younger
TTITLE2=J.D. Farley/ Bill Was a Texas Lad
TTITLE3=Jules Allen/ Long Side The Sante Fe Trail
TTITLE4=Carl Sprague/ The Mormon Cowboy
TTITLE5=Martin and Roberts/ The Roundup in the Spring
TTITLE6=Ken Maynard/ The Lone Star Trail
TTITLE7=Crowder Brothers/ Wild West Rambler
TTITLE8=Harry McClintock/ Sam Bass
TTITLE9=Patt Patterson and His Champion Rep Riders/ The Wandering Cowboy
TTITLE10=Cartwright Brothers/ Texas Ranger
TTITLE11=Arkansas Woodchopper/ I'm a Texas Cowboy
TTITLE12=Carl Sprague/ The Last Longhorn
TTITLE13=Lonesome Luke and His Farm Hands/ Wild Hog in the Woods
TTITLE14=Arthur Miles/ Lonely Cowboy, Part 1
TTITLE15=Arthur Miles/ Lonely Cowboy, Part 2
TTITLE16=Harry McClintock/ Goodbye Old Paint
TTITLE17=Powder River Jack and Kitty Lee/ Tying a Knot in the Devil's Tail
TTITLE18=Billie Maxwell/ Haunted Hunter
TTITLE19=Taylor's Kentucky Boys/ The Dixie Cowboy
TTITLE20=Dick Devall/ Out On The Lone Star Cow Trail
TTITLE21=Ken Maynard/ The Cowboy's Lament
TTITLE22=Watts and Wilson/ The Sporting Cowboy
EXTD=YEAR: 1996
EXTT0=
EXTT1=
EXTT2=
EXTT3=
EXTT4=
EXTT5=
EXTT6=
EXTT7=
EXTT8=
EXTT9=
EXTT10=
EXTT11=
EXTT12=
EXTT13=
EXTT14=
EXTT15=
EXTT16=
EXTT17=
EXTT18=
EXTT19=
EXTT20=
EXTT21=
EXTT22=
PLAYORDER=
